<svg xmlns="http://www.w3.org/2000/svg" xmlns:xlink="http://www.w3.org/1999/xlink" viewBox="0,0,256,256" width="144px" height="144px" fill-rule="nonzero"><g fill="#ff9324" fill-rule="nonzero" stroke="none" stroke-width="1" stroke-linecap="butt" stroke-linejoin="miter" stroke-miterlimit="10" stroke-dasharray="" stroke-dashoffset="0" font-family="none" font-weight="none" font-size="none" text-anchor="none" style="mix-blend-mode: normal"><g transform="scale(5.33333,5.33333)"><path d="M20,4.09961c-0.82746,-0.00022 -1.65415,0.40807 -2.0332,1.22461c-0.00065,0.00065 -0.0013,0.0013 -0.00195,0.00195l-2.0293,4.39063c-1.26863,2.74673 -3.47203,4.95202 -6.21875,6.2207c-0.00065,0 -0.0013,0 -0.00195,0l-4.39063,2.0293c-1.6365,0.75684 -1.6365,3.31152 0,4.06836l4.39063,2.0293c0.00065,0 0.0013,0 0.00195,0c2.74672,1.26868 4.95007,3.47203 6.21875,6.21875c0,0.00065 0,0.0013 0,0.00195l2.0293,4.39063c0.75684,1.6365 3.31152,1.6365 4.06836,0l2.0293,-4.39062c0,-0.00065 0,-0.0013 0,-0.00195c1.26868,-2.74672 3.47398,-4.95007 6.2207,-6.21875l4.39063,-2.0293c1.6365,-0.75684 1.6365,-3.31151 0,-4.06836l-4.39062,-2.0293c-2.74672,-1.26868 -4.95202,-3.47398 -6.2207,-6.2207l-2.0293,-4.39062c-0.37812,-0.8176 -1.20575,-1.22634 -2.0332,-1.22656zM20,8.07617l1.33984,2.89844c1.56732,3.39328 4.29227,6.11823 7.68555,7.68555l2.89844,1.33984l-2.89844,1.33984c-3.39328,1.56732 -6.11823,4.29227 -7.68555,7.68555l-1.33984,2.89844l-1.33984,-2.89844c-1.56732,-3.39328 -4.29227,-6.11823 -7.68555,-7.68555l-2.89844,-1.33984l2.89844,-1.33984c3.39328,-1.56732 6.11823,-4.29227 7.68555,-7.68555zM36.97656,30c-0.71278,0.01099 -1.31939,0.52207 -1.45117,1.22266c-0.41248,2.18863 -2.11411,3.89026 -4.30273,4.30273c-0.70991,0.1327 -1.22451,0.7524 -1.22451,1.47461c0,0.72221 0.5146,1.34191 1.22451,1.47461c2.18863,0.41248 3.89026,2.11411 4.30273,4.30273c0.1327,0.70991 0.7524,1.22451 1.47461,1.22451c0.72221,0 1.34191,-0.5146 1.47461,-1.22451c0.41248,-2.18863 2.11411,-3.89026 4.30273,-4.30273c0.70991,-0.1327 1.22451,-0.7524 1.22451,-1.47461c0,-0.72221 -0.5146,-1.34191 -1.22451,-1.47461c-2.18863,-0.41248 -3.89026,-2.11411 -4.30273,-4.30273c-0.13504,-0.71794 -0.76761,-1.23422 -1.49805,-1.22266zM37,35.02148c0.54785,0.77186 1.20666,1.43066 1.97852,1.97852c-0.77186,0.54785 -1.43066,1.20666 -1.97852,1.97852c-0.54785,-0.77186 -1.20666,-1.43066 -1.97852,-1.97852c0.77186,-0.54785 1.43066,-1.20666 1.97852,-1.97852z"></path></g></g></svg>